# xmcd
#
# Track frame offsets:
#	225
#	17703
#	34021
#	47891
#	64581
#	80846
#	96393
#	109516
#	126733
#	139835
#	153670
#	170624
#	186991
#
# Disc length: 2700 seconds
#
# Revision: 1
# Processed by: cddbd v1.5.2PL0 Copyright (c) Steve Scherf et al.
# Submitted via: audiograbber 1.83.01
#
DISCID=be0a890d
DTITLE=James Payne - Honky Tonk Salvation
DYEAR=2006
DGENRE=Country Gospel
TTITLE0=House Of Good News
TTITLE1=Dancing with Delilah
TTITLE2=Honky Tonk Salvation
TTITLE3=Mama's Hall Of Fame
TTITLE4=Smoking Gospel Grass
TTITLE5=Blood and Whiskey
TTITLE6=Way Down Yonder
TTITLE7=Healing Hands Of Jesus
TTITLE8=House Built By The Blood
TTITLE9=Mercy Brought Me Out
TTITLE10=Hanging On A Nail
TTITLE11=That Same Altar
TTITLE12=That's How Much I Love You
EXTD=
EXTT0=
EXTT1=
EXTT2=
EXTT3=
EXTT4=
EXTT5=
EXTT6=
EXTT7=
EXTT8=
EXTT9=
EXTT10=
EXTT11=
EXTT12=
PLAYORDER=
